<svg xmlns="http://www.w3.org/2000/svg" width="20" height="20" viewBox="0 0 20 20">
  <g fill="none" fill-rule="evenodd">
    <rect width="20" height="20" fill="#F5FFFC" rx="10"/>
    <path fill="#37AD8D" fill-rule="nonzero" d="M2.428832,11.58 L2.631832,10.103 L4.913832,10.103 L4.983832,9.431 L2.764832,9.431 L2.897832,8.29 L5.319832,8.29 L5.382832,7.618 L1.420832,7.618 L1.623832,7.884 L1.084832,11.58 L2.428832,11.58 Z M7.017666,11.58 L7.220666,10.103 L8.564666,11.58 L10.041666,11.58 L8.627666,10.103 L9.502666,10.103 C9.572666,10.103 9.639166,10.0913333 9.702166,10.068 C9.765166,10.0446667 9.82233267,10.012 9.873666,9.97 C9.92499933,9.928 9.96583267,9.87783333 9.996166,9.8195 C10.0264993,9.76116667 10.041666,9.69933333 10.041666,9.634 L10.041666,9.634 L10.307666,7.618 L5.939666,7.618 L6.142666,7.884 L5.673666,11.58 L7.017666,11.58 Z M8.767666,9.431 L7.283666,9.431 L7.423666,8.29 L8.900666,8.29 L8.767666,9.431 Z M14.3995,11.58 L14.4625,10.908 L12.1105,10.908 L12.2435,9.83 L14.3995,9.83 L14.4625,9.158 L12.3835,9.158 L12.5165,8.29 L14.7355,8.29 L14.7985,7.618 L10.9695,7.618 L11.1725,7.884 L10.6335,11.58 L14.3995,11.58 Z M18.855334,11.58 L18.918334,10.908 L16.566334,10.908 L16.699334,9.83 L18.855334,9.83 L18.918334,9.158 L16.839334,9.158 L16.972334,8.29 L19.191334,8.29 L19.254334,7.618 L15.425334,7.618 L15.628334,7.884 L15.089334,11.58 L18.855334,11.58 Z"/>
  </g>
</svg>
