<svg xmlns="http://www.w3.org/2000/svg" width="20" height="20" viewBox="0 0 20 20">
  <g fill="none" fill-rule="evenodd">
    <rect width="20" height="20" fill="#EFF8FF" rx="10"/>
    <path fill="#327AFF" fill-rule="nonzero" d="M9.802,13.28 C10.034,13.28 10.238,13.202 10.414,13.046 C10.59,12.89 10.698,12.696 10.738,12.464 L10.738,12.464 L11.578,6.452 L5.566,6.452 C5.334,6.452 5.128,6.53 4.948,6.686 C4.768,6.842 4.662,7.036 4.63,7.268 L4.63,7.268 L3.79,13.28 L9.802,13.28 Z M8.494,12.14 L6.226,12.14 L6.874,7.58 L9.142,7.58 L8.494,12.14 Z M15.178,13.28 L16.15,6.332 L12.898,6.788 L12.718,8.036 L13.654,7.904 L12.898,13.28 L15.178,13.28 Z"/>
  </g>
</svg>
