<svg xmlns="http://www.w3.org/2000/svg" width="20" height="20" viewBox="0 0 20 20">
  <g fill="none" fill-rule="evenodd">
    <rect width="20" height="20" fill="#EFF8FF" rx="10"/>
    <path fill="#327AFF" fill-rule="nonzero" d="M7.732,13.28 C7.964,13.28 8.168,13.202 8.344,13.046 C8.52,12.89 8.628,12.696 8.668,12.464 L8.668,12.464 L9.508,6.452 L3.496,6.452 C3.264,6.452 3.058,6.53 2.878,6.686 C2.698,6.842 2.592,7.036 2.56,7.268 L2.56,7.268 L1.72,13.28 L7.732,13.28 Z M6.424,12.14 L4.156,12.14 L4.804,7.58 L7.072,7.58 L6.424,12.14 Z M17.32,13.28 L17.548,11.684 L17.032,12.14 L12.7,12.14 L12.916,10.544 L17.704,10.544 L18.28,6.44 L11.452,6.44 L11.164,8.492 L13.444,8.492 L13.552,7.58 L15.844,7.58 L15.58,9.404 L11.032,9.404 L10.6,12.464 C10.568,12.696 10.62,12.89 10.756,13.046 C10.892,13.202 11.076,13.28 11.308,13.28 L11.308,13.28 L17.32,13.28 Z"/>
  </g>
</svg>
