<svg xmlns="http://www.w3.org/2000/svg" width="20" height="20" viewBox="0 0 20 20">
  <g fill="none" fill-rule="evenodd">
    <rect width="20" height="20" fill="#EFF8FF" rx="10"/>
    <path fill="#327AFF" fill-rule="nonzero" d="M7.888,13.28 C8.12,13.28 8.324,13.202 8.5,13.046 C8.676,12.89 8.784,12.696 8.824,12.464 L8.824,12.464 L9.664,6.452 L3.652,6.452 C3.42,6.452 3.214,6.53 3.034,6.686 C2.854,6.842 2.748,7.036 2.716,7.268 L2.716,7.268 L1.876,13.28 L7.888,13.28 Z M6.58,12.14 L4.312,12.14 L4.96,7.58 L7.228,7.58 L6.58,12.14 Z M16.348,13.28 C16.572,13.28 16.774,13.202 16.954,13.046 C17.134,12.89 17.24,12.696 17.272,12.464 L17.272,12.464 L18.124,6.452 L11.284,6.452 L11.128,7.58 L15.688,7.58 L15.46,9.176 L11.356,9.176 L11.2,10.316 L15.304,10.316 L15.04,12.14 L10.492,12.14 L10.324,13.28 L16.348,13.28 Z"/>
  </g>
</svg>
